<?xml version="1.0" encoding="UTF-8" standalone="no"?>
<svg
   xmlns:dc="http://purl.org/dc/elements/1.1/"
   xmlns:cc="http://creativecommons.org/ns#"
   xmlns:rdf="http://www.w3.org/1999/02/22-rdf-syntax-ns#"
   xmlns:svg="http://www.w3.org/2000/svg"
   xmlns="http://www.w3.org/2000/svg"
   xmlns:sodipodi="http://sodipodi.sourceforge.net/DTD/sodipodi-0.dtd"
   xmlns:inkscape="http://www.inkscape.org/namespaces/inkscape"
   version="1.1"
   x="0px"
   y="0px"
   viewBox="0 0 1000 1000"
   enable-background="new 0 0 1000 1000"
   xml:space="preserve"
   id="svg56"
   sodipodi:docname="editproject.svg"
   inkscape:version="0.92.1 r15371"><defs
     id="defs60" /><sodipodi:namedview
     pagecolor="#ffffff"
     bordercolor="#666666"
     borderopacity="1"
     objecttolerance="10"
     gridtolerance="10"
     guidetolerance="10"
     inkscape:pageopacity="0"
     inkscape:pageshadow="2"
     inkscape:window-width="1920"
     inkscape:window-height="1058"
     id="namedview58"
     showgrid="false"
     inkscape:zoom="0.08"
     inkscape:cx="-6512.3524"
     inkscape:cy="-1933.7276"
     inkscape:window-x="3832"
     inkscape:window-y="-8"
     inkscape:window-maximized="1"
     inkscape:current-layer="g54" /><g
     id="g54"><g
       id="g22"><g
         id="g20"><path
           d="M307.2,301.3c19.8,0,35.8,16,35.8,35.8c0,19.8-16,35.8-35.8,35.8c-19.8,0-35.8-16-35.8-35.8C271.4,317.4,287.4,301.3,307.2,301.3z"
           id="path2" /><rect
           x="387.2"
           y="306.8"
           width="348.2"
           height="60.6"
           id="rect4" /><path
           d="M307.2,442.8c19.8,0,35.8,16,35.8,35.8c0,19.8-16,35.8-35.8,35.8c-19.8,0-35.8-16-35.8-35.8C271.4,458.8,287.4,442.8,307.2,442.8z"
           id="path6" /><rect
           x="387.2"
           y="448.2"
           width="348.2"
           height="60.6"
           id="rect8" /><path
           d="M307.2,599.4c19.8,0,35.8,16,35.8,35.8s-16,35.8-35.8,35.8c-19.8,0-35.8-16-35.8-35.8C271.4,615.4,287.4,599.4,307.2,599.4z"
           id="path10" /><rect
           x="387.20001"
           y="604.79999"
           width="230.1187"
           height="60.599976"
           id="rect12" /><path
           d="M307.2,740.8c19.8,0,35.8,16,35.8,35.8c0,19.7-16,35.8-35.8,35.8c-19.8,0-35.8-16-35.8-35.8C271.4,756.8,287.4,740.8,307.2,740.8z"
           id="path14" /><rect
           x="387.20001"
           y="746.29999"
           width="108.11151"
           height="59.852234"
           id="rect16" /><path
           d="M 842.3,88.3 H 689 v -48 C 689,40.3 574.5,10 498.1,10 421.7,10 307.2,40.3 307.2,40.3 v 48 H 157.7 c -22.3,0 -40.4,18.1 -40.4,40.4 v 820.9 c 0,22.3 18.1,40.4 40.4,40.4 H 434.87067 664.15863 842.2 c 22.3,0 40.4,-18.1 40.4,-40.4 L 882.68929,416.25 882.6,128.7 C 882.7,106.4 864.5,88.3 842.3,88.3 Z M 500,45 c 20.6,0 37.2,16.7 37.2,37.2 0,20.5 -16.7,37.2 -37.2,37.2 -20.6,0 -37.3,-16.7 -37.3,-37.2 C 462.8,61.6 479.4,45 500,45 Z M 801.8,909.2 736.14197,909.32942 655.23005,990 H 434.87067 L 448.00265,909.70503 198.2,909.2 V 169.1 h 109 v 27.8 H 689 v -27.8 h 112.8 v 304.47143 l 0.50508,18.45631 80.38421,-75.77774 -0.0439,329.85213 -80.84542,87.4693 z"
           id="path18"
           inkscape:connector-curvature="0"
           sodipodi:nodetypes="sccsccssssccssccsssscscccccccccccccccccc" /></g></g><g
       id="g24" /><g
       id="g26" /><g
       id="g28" /><g
       id="g30" /><g
       id="g32" /><g
       id="g34" /><g
       id="g36" /><g
       id="g38" /><g
       id="g40" /><g
       id="g42" /><g
       id="g44" /><g
       id="g46" /><g
       id="g48" /><g
       id="g50" /><g
       id="g52" /></g><g
     transform="matrix(1.2828432,0,0,1.3333493,410.27977,389.07809)"
     id="g8"><path
       style="fill:#020202"
       inkscape:connector-curvature="0"
       d="m 422.953,176.019 c 0.549,-0.48 1.09,-0.975 1.612,-1.498 l 21.772,-21.772 c 12.883,-12.883 12.883,-33.771 0,-46.654 L 405.903,65.661 c -12.883,-12.883 -33.771,-12.883 -46.653,0 l -21.772,21.772 c -0.523,0.523 -1.018,1.064 -1.498,1.613 z"
       id="path2-8" /><polygon
       style="fill:#020202"
       points="63.658,405.341 71.316,354.683 114.317,397.684 157.317,440.684 106.658,448.342 56,456 "
       id="polygon4" /><polygon
       style="fill:#020202"
       points="168.747,430.341 411.348,187.74 349.143,125.535 118.982,355.694 106.541,343.253 336.701,113.094 324.26,100.653 81.659,343.253 "
       id="polygon6" /></g></svg>