<?xml version="1.0" encoding="UTF-8" standalone="no"?>
<!-- Created with Inkscape (http://www.inkscape.org/) -->

<svg
   xmlns:dc="http://purl.org/dc/elements/1.1/"
   xmlns:cc="http://creativecommons.org/ns#"
   xmlns:rdf="http://www.w3.org/1999/02/22-rdf-syntax-ns#"
   xmlns:svg="http://www.w3.org/2000/svg"
   xmlns="http://www.w3.org/2000/svg"
   xmlns:sodipodi="http://sodipodi.sourceforge.net/DTD/sodipodi-0.dtd"
   xmlns:inkscape="http://www.inkscape.org/namespaces/inkscape"
   width="256px"
   height="256px"
   viewBox="0 0 256 256"
   version="1.1"
   id="SVGRoot"
   inkscape:version="0.92.1 r15371"
   sodipodi:docname="editprofil.svg">
  <sodipodi:namedview
     id="base"
     pagecolor="#ffffff"
     bordercolor="#666666"
     borderopacity="1.0"
     inkscape:pageopacity="0.0"
     inkscape:pageshadow="2"
     inkscape:zoom="1"
     inkscape:cx="232.12685"
     inkscape:cy="-88.453822"
     inkscape:document-units="px"
     inkscape:current-layer="layer1"
     showgrid="false"
     inkscape:window-width="1858"
     inkscape:window-height="1058"
     inkscape:window-x="1974"
     inkscape:window-y="-8"
     inkscape:window-maximized="1"
     inkscape:grid-bbox="true" />
  <defs
     id="defs32" />

  <g
     id="layer1"
     inkscape:groupmode="layer"
     inkscape:label="Calque 1">
    <path
       d="m 75.677711,219.70354 c -11.571215,0 -20.8472,-4.17303 -27.8282,-10.75118 -6.981013,-6.57819 -10.471441,-15.54639 -10.471441,-26.90445 0,-5.01643 0.167394,-9.9146 0.502051,-14.69451 0.334658,-4.7799 1.004117,-9.93832 2.008221,-15.47537 1.004117,-5.53707 2.271154,-10.67191 3.801283,-15.40438 1.530115,-4.73248 3.586112,-9.34671 6.168107,-13.84266 2.581994,-4.49594 5.546555,-8.3293 8.893548,-11.50005 3.346982,-3.17073 7.435159,-5.70274 12.264492,-7.59571 4.829347,-1.89295 10.1606,-2.83951 15.994049,-2.83951 0.86067,0 2.868891,1.01754 6.02466,3.05249 3.155784,2.03493 6.717937,4.30654 10.686619,6.81482 3.96867,2.5083 9.13266,4.77991 15.49198,6.81485 6.35933,2.03495 12.74259,3.05249 19.14983,3.05249 6.40723,0 12.79051,-1.01754 19.14982,-3.05249 6.35932,-2.03494 11.52332,-4.30655 15.492,-6.81485 L 88.006504,219.66266 Z M 193.44554,55.26342 c 0,15.049448 -5.37915,27.89827 -16.13749,38.546465 -10.75831,10.648195 -23.74003,15.972295 -38.94514,15.972295 -15.2051,0 -28.18682,-5.3241 -38.945146,-15.972295 C 88.659437,83.16169 83.280262,70.312868 83.280262,55.26342 c 0,-15.049445 5.379175,-27.898252 16.137502,-38.546446 C 110.17609,6.068778 123.15781,0.74468079 138.36291,0.74468079 c 15.20511,0 28.18683,5.32409721 38.94514,15.97229321 10.75834,10.648194 16.13749,23.497001 16.13749,38.546446 z"
       id="path2"
       inkscape:connector-curvature="0"
       sodipodi:nodetypes="csssssssssssssscccsssssssss"
       style="stroke-width:0.14270826" />
    <g
       transform="matrix(0.35222458,0,0,0.35668181,83.599762,84.757574)"
       id="g8">
      <path
         style="fill:#020202"
         inkscape:connector-curvature="0"
         d="m 413.95627,159.56344 c 0.49734,-0.53299 0.98519,-1.0801 1.4513,-1.65314 l 19.44492,-23.85949 c 11.50601,-14.11822 9.38105,-34.8986 -4.74618,-46.413627 L 385.76722,51.496644 c -14.12723,-11.515027 -34.90761,-9.404669 -46.41263,4.713448 l -19.44492,23.859493 c -0.4671,0.573145 -0.90451,1.161369 -1.32619,1.756035 z"
         id="path2-4" />
      <polygon
         style="fill:#020202"
         points="56,456 63.658,405.341 71.316,354.683 114.317,397.684 157.317,440.684 106.658,448.342 "
         id="polygon4"
         transform="matrix(0.99484765,-0.10103206,0.10173159,0.99484765,-24.724224,27.183167)" />
      <polygon
         style="fill:#020202"
         points="118.982,355.694 106.541,343.253 336.701,113.094 324.26,100.653 81.659,343.253 168.747,430.341 411.348,187.74 349.143,125.535 "
         id="polygon6"
         transform="matrix(0.99484765,-0.10103206,0.10173159,0.99484765,-24.724224,27.183167)" />
    </g>
  </g>
</svg>
