<?xml version="1.0" encoding="UTF-8" standalone="no"?>
<!-- Generator: Adobe Illustrator 16.0.0, SVG Export Plug-In . SVG Version: 6.00 Build 0)  -->

<svg
   xmlns:dc="http://purl.org/dc/elements/1.1/"
   xmlns:cc="http://creativecommons.org/ns#"
   xmlns:rdf="http://www.w3.org/1999/02/22-rdf-syntax-ns#"
   xmlns:svg="http://www.w3.org/2000/svg"
   xmlns="http://www.w3.org/2000/svg"
   xmlns:sodipodi="http://sodipodi.sourceforge.net/DTD/sodipodi-0.dtd"
   xmlns:inkscape="http://www.inkscape.org/namespaces/inkscape"
   version="1.1"
   id="Capa_1"
   x="0px"
   y="0px"
   width="944.699px"
   height="944.699px"
   viewBox="0 0 944.699 944.699"
   style="enable-background:new 0 0 944.699 944.699;"
   xml:space="preserve"
   sodipodi:docname="export.svg"
   inkscape:version="0.92.1 r15371"><metadata
     id="metadata43"><rdf:RDF><cc:Work
         rdf:about=""><dc:format>image/svg+xml</dc:format><dc:type
           rdf:resource="http://purl.org/dc/dcmitype/StillImage" /><dc:title /></cc:Work></rdf:RDF></metadata><defs
     id="defs41" /><sodipodi:namedview
     pagecolor="#ffffff"
     bordercolor="#666666"
     borderopacity="1"
     objecttolerance="10"
     gridtolerance="10"
     guidetolerance="10"
     inkscape:pageopacity="0"
     inkscape:pageshadow="2"
     inkscape:window-width="1858"
     inkscape:window-height="1058"
     id="namedview39"
     showgrid="false"
     inkscape:zoom="0.1766459"
     inkscape:cx="-1767.6684"
     inkscape:cy="-323.59874"
     inkscape:window-x="1974"
     inkscape:window-y="-8"
     inkscape:window-maximized="1"
     inkscape:current-layer="g6" /><g
     id="g6"><path
       d="m 894.801,603.05 -234.82774,0.58622 c 0.002,25.26671 -36.16624,57.36093 -59.71849,57.51815 -26.03112,0.17377 -105.87329,-0.54955 -127.91547,0.15808 -23.85995,0.76599 -95.02096,-1.19287 -131.86232,-1.61323 C 313.39462,659.39021 283.43865,627.20668 283.6553,603.05 H 50 c -27.6,0 -50,22.4 -50,50 v 198.5 c 0,27.6 22.4,50 50,50 h 844.699 c 27.602,0 50,-22.4 50,-50 v -198.5 c 0.102,-27.6 -22.29908,-50.0689 -49.898,-50 z M 139.2,794.95 c -23.5,0 -42.6,-19.102 -42.6,-42.602 0,-23.5 19.1,-42.6 42.6,-42.6 23.5,0 42.6,19.1 42.6,42.6 0,23.5 -19.1,42.602 -42.6,42.602 z"
       id="path2"
       inkscape:connector-curvature="0"
       sodipodi:nodetypes="scsssccssssscssssss" /><path
       d="M 526.40647,77.96583 511.07759,60.303852 C 501.12326,48.962604 487.34636,43.207981 473.54648,43.152312 459.74759,43.096647 445.92371,48.739928 435.8782,60.000496 L 420.40733,77.53823 210.74975,314.4944 c -28.53007,32.18517 -5.73478,82.97754 37.26487,83.151 l 65.59947,0.26463 -0.5692,141.09886 c -0.11134,27.59977 22.19812,50.08995 49.79789,50.20129 l 216.99824,0.87537 c 27.59977,0.11134 50.08995,-22.19811 50.20129,-49.79789 l 0.5696,-141.19885 65.59947,0.26463 c 42.99965,0.17346 66.10398,-50.43375 37.93451,-82.84765 z"
       id="path4"
       inkscape:connector-curvature="0" /></g><g
     id="g8" /><g
     id="g10" /><g
     id="g12" /><g
     id="g14" /><g
     id="g16" /><g
     id="g18" /><g
     id="g20" /><g
     id="g22" /><g
     id="g24" /><g
     id="g26" /><g
     id="g28" /><g
     id="g30" /><g
     id="g32" /><g
     id="g34" /><g
     id="g36" /></svg>