<?xml version="1.0" encoding="UTF-8" standalone="no"?>
<!-- Generator: Adobe Illustrator 16.0.0, SVG Export Plug-In . SVG Version: 6.00 Build 0)  -->

<svg
   xmlns:dc="http://purl.org/dc/elements/1.1/"
   xmlns:cc="http://creativecommons.org/ns#"
   xmlns:rdf="http://www.w3.org/1999/02/22-rdf-syntax-ns#"
   xmlns:svg="http://www.w3.org/2000/svg"
   xmlns="http://www.w3.org/2000/svg"
   xmlns:sodipodi="http://sodipodi.sourceforge.net/DTD/sodipodi-0.dtd"
   xmlns:inkscape="http://www.inkscape.org/namespaces/inkscape"
   version="1.1"
   id="Capa_1"
   x="0px"
   y="0px"
   width="944.699px"
   height="944.699px"
   viewBox="0 0 944.699 944.699"
   style="enable-background:new 0 0 944.699 944.699;"
   xml:space="preserve"
   sodipodi:docname="import.svg"
   inkscape:version="0.92.1 r15371"><metadata
     id="metadata43"><rdf:RDF><cc:Work
         rdf:about=""><dc:format>image/svg+xml</dc:format><dc:type
           rdf:resource="http://purl.org/dc/dcmitype/StillImage" /></cc:Work></rdf:RDF></metadata><defs
     id="defs41" /><sodipodi:namedview
     pagecolor="#ffffff"
     bordercolor="#666666"
     borderopacity="1"
     objecttolerance="10"
     gridtolerance="10"
     guidetolerance="10"
     inkscape:pageopacity="0"
     inkscape:pageshadow="2"
     inkscape:window-width="1858"
     inkscape:window-height="1058"
     id="namedview39"
     showgrid="false"
     inkscape:zoom="0.24981503"
     inkscape:cx="472.34949"
     inkscape:cy="472.34949"
     inkscape:window-x="1974"
     inkscape:window-y="-8"
     inkscape:window-maximized="1"
     inkscape:current-layer="g6" /><g
     id="g6"><path
       d="m 894.801,603.05 h -309.5 l -41.5,47.199 c -18,20.5 -44.102,32.301 -71.401,32.301 -27.3,0 -53.4,-11.801 -71.4,-32.301 L 359.5,603.05 H 50 c -27.6,0 -50,22.4 -50,50 v 198.5 c 0,27.6 22.4,50 50,50 h 844.699 c 27.602,0 50,-22.4 50,-50 v -198.5 c 0.102,-27.6 -22.299,-50 -49.898,-50 z M 139.2,794.95 c -23.5,0 -42.6,-19.102 -42.6,-42.602 0,-23.5 19.1,-42.6 42.6,-42.6 23.5,0 42.6,19.1 42.6,42.6 0,23.5 -19.1,42.602 -42.6,42.602 z"
       id="path2"
       inkscape:connector-curvature="0" /><path
       d="m 419.4,555.05 15.4,17.6 c 10,11.301 23.8,17 37.6,17 13.799,0 27.6,-5.699 37.6,-17 l 15.4,-17.6 208.7,-237.8 c 28.4,-32.3 5.4,-83 -37.6,-83 H 630.9 V 93.15 c 0,-27.6 -22.4,-50 -50,-50 h -217 c -27.6,0 -50,22.4 -50,50 v 141.2 h -65.6 c -43,0 -65.9,50.7 -37.6,83 z"
       id="path4"
       inkscape:connector-curvature="0" /></g><g
     id="g8" /><g
     id="g10" /><g
     id="g12" /><g
     id="g14" /><g
     id="g16" /><g
     id="g18" /><g
     id="g20" /><g
     id="g22" /><g
     id="g24" /><g
     id="g26" /><g
     id="g28" /><g
     id="g30" /><g
     id="g32" /><g
     id="g34" /><g
     id="g36" /></svg>