<?xml version="1.0" encoding="UTF-8" standalone="no"?>
<svg
   xmlns:dc="http://purl.org/dc/elements/1.1/"
   xmlns:cc="http://creativecommons.org/ns#"
   xmlns:rdf="http://www.w3.org/1999/02/22-rdf-syntax-ns#"
   xmlns:svg="http://www.w3.org/2000/svg"
   xmlns="http://www.w3.org/2000/svg"
   xmlns:sodipodi="http://sodipodi.sourceforge.net/DTD/sodipodi-0.dtd"
   xmlns:inkscape="http://www.inkscape.org/namespaces/inkscape"
   contentScriptType="text/ecmascript"
   contentStyleType="text/css"
   enable-background="new 0 0 2048 2048"
   height="2048px"
   id="Layer_1"
   preserveAspectRatio="xMidYMid meet"
   version="1.1"
   viewBox="0.0 0 1408.0 2048"
   width="1408.0px"
   xml:space="preserve"
   zoomAndPan="magnify"
   sodipodi:docname="me.svg"
   inkscape:version="0.92.1 r15371"><defs
     id="defs7" /><sodipodi:namedview
     pagecolor="#ffffff"
     bordercolor="#666666"
     borderopacity="1"
     objecttolerance="10"
     gridtolerance="10"
     guidetolerance="10"
     inkscape:pageopacity="0"
     inkscape:pageshadow="2"
     inkscape:window-width="1858"
     inkscape:window-height="1058"
     id="namedview5"
     showgrid="false"
     inkscape:zoom="0.22627418"
     inkscape:cx="1126.7568"
     inkscape:cy="433.84516"
     inkscape:window-x="1974"
     inkscape:window-y="-8"
     inkscape:window-maximized="1"
     inkscape:current-layer="Layer_1" /><path
     d="M 267,1800.8388 C 186.33309,1800.7231 121.667,1768.833 73,1722.5 24.333,1676.167 0,1613 0,1533 c 0,-35.333 1.167,-69.833 3.5,-103.5 2.333,-33.667 7,-70 14,-109 7,-39 15.833,-75.167 26.5,-108.5 10.667,-33.333 25,-65.833 43,-97.5 18,-31.667 38.667,-58.667 62,-81 23.333,-22.333 51.833,-40.167 85.5,-53.5 33.667,-13.333 70.833,-20 111.5,-20 6,0 20,7.167 42,21.5 22,14.333 46.833,30.333 74.5,48 27.667,17.667 63.667,33.667 108,48 44.333,14.333 88.833,21.5 133.5,21.5 44.667,0 89.167,-7.167 133.5,-21.5 44.333,-14.333 80.333,-30.333 108,-48 27.667,-17.667 52.5,-33.667 74.5,-48 22,-14.333 36,-21.5 42,-21.5 40.667,0 77.833,6.667 111.5,20 33.667,13.333 62.167,31.167 85.5,53.5 23.333,22.333 44,49.333 62,81 18,31.667 29.5753,65.0988 40.2379,94.7379 0,0 14.6873,45.6609 22.9335,86.8837 8.5145,42.5638 12.3362,60.8528 16.7781,96.3696 4.4751,35.7824 7.8091,80.2352 7.9716,113.8538 0.1683,34.7997 -8.8181,106.2748 -37.952,165.2791 -18.0457,36.5474 -92.5567,127.4664 -168.1598,128.6989 -72.2025,1.177 -459.61935,-1.1049 -528.45567,0.6485 0,0 -314.88348,0 -407.35363,-0.1327 z M 1088,640 c 0,106 -37.5,196.5 -112.5,271.5 C 900.5,986.5 810,1024 704,1024 598,1024 507.5,986.5 432.5,911.5 357.5,836.5 320,746 320,640 320,534 357.5,443.5 432.5,368.5 507.5,293.5 598,256 704,256 c 106,0 196.5,37.5 271.5,112.5 75,75 112.5,165.5 112.5,271.5 z"
     id="path2"
     inkscape:connector-curvature="0"
     sodipodi:nodetypes="ssssssssssssssssssssssssssscssssssssss" /></svg>